<svg xmlns="http://www.w3.org/2000/svg" width="24" height="24" viewBox="0 0 24 24"><path fill="#f0d78c" d="M19.07 4.93a9.9 9.9 0 0 0-3.18-2.14a10.12 10.12 0 0 0-7.79 0c-1.19.5-2.26 1.23-3.18 2.14S3.28 6.92 2.78 8.11A9.95 9.95 0 0 0 1.99 12h2c0-1.08.21-2.13.63-3.11c.4-.95.98-1.81 1.72-2.54c.73-.74 1.59-1.31 2.54-1.71c1.97-.83 4.26-.83 6.23 0c.95.4 1.81.98 2.54 1.72c.17.17.33.34.48.52L16 9.01h6V3l-2.45 2.45c-.15-.18-.31-.36-.48-.52m.3 10.18c-.4.95-.98 1.81-1.72 2.54c-.73.74-1.59 1.31-2.54 1.71c-1.97.83-4.26.83-6.23 0c-.95-.4-1.81-.98-2.54-1.72c-.17-.17-.33-.34-.48-.52l2.13-2.13H2v6l2.45-2.45c.15.18.31.36.48.52c.92.92 1.99 1.64 3.18 2.14c1.23.52 2.54.79 3.89.79s2.66-.26 3.89-.79c1.19-.5 2.26-1.23 3.18-2.14s1.64-1.99 2.14-3.18c.52-1.23.79-2.54.79-3.89h-2c0 1.08-.21 2.13-.63 3.11Z"/></svg>
