<?xml version="1.0" encoding="utf-8"?>
<!-- Generator: Adobe Illustrator 24.0.0, SVG Export Plug-In . SVG Version: 6.00 Build 0)  -->
<svg version="1.2" baseProfile="tiny" id="_x31_0._White_color_on_a_transparent_background"
	 xmlns="http://www.w3.org/2000/svg" xmlns:xlink="http://www.w3.org/1999/xlink" x="0px" y="0px" viewBox="0 0 240 114"
	 xml:space="preserve">
<g>
	<g>
		<g>
			<path fill="#FFFFFF" d="M33.19967,82.56968c-0.2948,1.17999,0.29559,1.86891,1.27852,1.86891h19.17773l-2.26223,5.01553
				c-0.49186,0.98293-1.47558,1.96664-3.73702,1.96664H21.98863l20.25919-60.08865c0.19627-0.88519-0.19706-1.67184-1.37704-1.67184
				h-7.96589c-2.26223,0-3.34369-1.08145-3.83555-1.96664c-0.2948-0.59039-1.47478-3.34369-2.26144-5.11406h26.7495
				L33.19967,82.56968z"/>
			<path fill="#FFFFFF" d="M108.52673,91.42076h-7.76883l-6.19631-47.40202l-6.19552,47.40202h-7.76883l10.42439-68.84119h3.83555
				c2.95036,0,3.44142,1.86891,3.73701,3.73702L108.52673,91.42076z"/>
			<path fill="#FFFFFF" d="M163.10957,27.69363c-0.39333,0.88519-1.47479,1.86811-3.73701,1.86811h-5.5074
				c-0.98293,0-1.67184,0.78745-1.76958,1.67184v60.18718h-5.01633c-1.67184,0-1.96664-0.98372-1.96664-1.47478V29.56174h-9.93253
				v-4.81847c0-1.17998,0.98293-2.1637,2.1637-2.1637h28.12656L163.10957,27.69363z"/>
			<path fill="#FFFFFF" d="M208.08524,21.89144c4.72073,0.19627,8.55629,4.03181,8.55629,8.75255v52.81088
				c-0.09853,4.72073-3.83556,8.45775-8.55629,8.65401h-5.40886c-4.81926,0-8.75255-3.93328-8.85107-8.65401V30.64399
				c0-4.81927,3.93329-8.75255,8.85107-8.75255H208.08524z M205.72527,85.91337c2.06519,0,3.73701-1.67184,3.73701-3.83554V31.92251
				c0-2.1637-1.67183-3.83555-3.73701-3.83555h-1.08224c-2.06517,0.09853-3.73701,1.77037-3.73701,3.83555v50.15532
				c0,2.06517,1.67184,3.73701,3.73701,3.83554H205.72527z"/>
		</g>
	</g>
</g>
</svg>
