<svg xmlns="http://www.w3.org/2000/svg" width="24" height="24" viewBox="0 0 24 24"><path fill="currentColor" d="M3.5 17.962q-.213 0-.356-.144Q3 17.674 3 17.46t.144-.356t.356-.144h8.558q.212 0 .356.145t.144.356t-.144.356t-.356.144zm0-4.789q-.213 0-.356-.144Q3 12.885 3 12.673q0-.213.144-.357t.356-.143h3.462q.212 0 .356.144t.144.357t-.144.356t-.356.143zm0-4.788q-.213 0-.356-.144Q3 8.097 3 7.884t.144-.356t.356-.143h3.462q.212 0 .356.144t.144.356t-.144.356t-.356.144zm10.423 6.634q-1.684 0-2.87-1.164T9.865 11.01t1.188-2.845T13.928 7t2.869 1.165Q17.981 9.329 17.981 11q0 .667-.222 1.303q-.223.636-.648 1.159l3.535 3.477q.16.134.16.34t-.16.367q-.134.14-.34.14q-.208 0-.368-.14l-3.534-3.477q-.543.406-1.178.628q-.636.222-1.303.222m0-1q1.274 0 2.166-.875t.892-2.134t-.892-2.135T13.923 8t-2.166.875t-.892 2.135t.892 2.134t2.166.875"/></svg>
