<svg xmlns="http://www.w3.org/2000/svg" width="16" height="16" viewBox="0 0 16 16"><path fill="currentColor" fill-rule="evenodd" d="M5.85.146a.5.5 0 0 0-.707.707l.628.628a5.38 5.38 0 0 0-2.64 2.62l-1.33-.999a.5.5 0 1 0-.6.8l1.58 1.19a5.4 5.4 0 0 0-.141.899l-.144 2.01h-2a.5.5 0 0 0 0 1h1.93l-.001.015c-.08 1.13.18 2.2.69 3.12l-1.84.921a.5.5 0 0 0 .448.895l1.96-.982c1.02 1.24 2.57 2.03 4.31 2.03s3.29-.796 4.31-2.03l1.96.982a.5.5 0 1 0 .447-.895l-1.84-.92c.51-.916.77-1.99.69-3.12V9h1.93a.5.5 0 0 0 0-1h-2l-.144-2.01a5.4 5.4 0 0 0-.141-.899l1.58-1.19a.5.5 0 1 0-.6-.8l-1.33.999a5.4 5.4 0 0 0-2.64-2.62l.628-.628a.5.5 0 0 0-.707-.707l-.981.981Q8.59 1.001 7.985 1c-.606-.001-.79.044-1.17.127L5.834.146zm6.51 5.91l.216 3.03a4.58 4.58 0 0 1-4.58 4.91c-2.66 0-4.76-2.26-4.58-4.91l.216-3.03q.01-.145.03-.288c.191.13.434.279.73.427c.811.406 2.01.803 3.6.803s2.79-.397 3.6-.803c.296-.148.54-.297.73-.427q.02.143.03.288zm-.307-1.33a4.37 4.37 0 0 0-8.1 0q.053.044.133.104c.166.125.422.296.767.468c.689.344 1.74.697 3.15.697s2.46-.353 3.15-.697a5 5 0 0 0 .9-.572" clip-rule="evenodd"/></svg>
