<svg xmlns="http://www.w3.org/2000/svg" width="16" height="16" viewBox="0 0 16 16"><path fill="currentColor" fill-rule="evenodd" d="M7.65 14a.5.5 0 0 1-.258.01a.6.6 0 0 1-.178-.069l-.022-.013c-.184-.11-1.51-.907-3.2-.907c-1.81 0-3.21.91-3.22.92c-.15.1-.35.11-.51.02s-.26-.26-.26-.44v-10a.51.51 0 0 1 .24-.432c.2-.123 1.73-1.07 3.76-1.07c1.64 0 2.95.614 3.5.916c.552-.303 1.86-.916 3.5-.916c2.03 0 3.56.944 3.76 1.07l.02.012c.14.09.22.25.22.42v10c0 .18-.1.35-.26.44c-.07.04-.16.06-.24.06h-.01c-.1 0-.19-.03-.28-.08l-.022-.012c-.184-.11-1.51-.907-3.2-.907c-1.66 0-2.98.765-3.19.9a.5.5 0 0 1-.154.079zm.354-1.31a7.3 7.3 0 0 1 2.99-.666c1.26 0 2.32.36 3 .67v-8.88c-.46-.25-1.61-.79-3-.79c-1.38 0-2.52.522-2.99.784v8.88zm-1.01.005c-.68-.31-1.74-.67-3-.67s-2.32.36-3 .67v-8.88c.46-.26 1.61-.79 3-.79s2.54.54 3 .79z" clip-rule="evenodd"/></svg>
